# xmcd
#
# Track frame offsets:
#	150
#	15857
#	32730
#	51465
#	71075
#	89602
#	106005
#	120012
#	140062
#	152710
#	165147
#	178532
#	189000
#	204375
#	228360
#
# Disc length: 3353
#
# Revision: 1
# Processed by: cddbd v1.5.1PL0 Copyright (c) Steve Scherf et al.
# Submitted via: ExactAudioCopy v0.95a4
# Normalized: r0:TDELIM( - )
#
DISCID=b10d170f
DTITLE=Various Artist - Rhythm and Soul n°27
DYEAR=2000
DGENRE=Soul
TTITLE0=Earth, Wind and Fire - Let's Groove
TTITLE1=George Duke - Shine On
TTITLE2=Patti Austin - It's Gonna Be Special
TTITLE3=Sounds Of Blackness - I'm Going All The Way
TTITLE4=Ini Kamoze - Here Comes The Hotstepper
TTITLE5=Isley Brothers - Love The One You're With
TTITLE6=James Brown - Hot Pants
TTITLE7=The Temptations - Masterpiece
TTITLE8=Four Tops - If I Were A Carpenter
TTITLE9=Diana Ross and The Supremes - The Happening
TTITLE10=Mavin Gaye and Tammi Terrell - Your Precious Love
TTITLE11=Carla Thomas - Gee Whiz
TTITLE12=Diana Ross - Touch Me In The Morning
TTITLE13=Johnny Gill - My, My, My
TTITLE14=The Edwin Hawkins Singers - Oh Happy Day
EXTD=
EXTT0=
EXTT1=
EXTT2=
EXTT3=
EXTT4=
EXTT5=
EXTT6=
EXTT7=
EXTT8=
EXTT9=
EXTT10=
EXTT11=
EXTT12=
EXTT13=
EXTT14=
PLAYORDER=
